/* XPM */
static char * schrumpf_16x16_xpm[] = {
"16 16 110 2",
"  	c None",
". 	c #6DC08D",
"+ 	c #76C58D",
"@ 	c #6DC58D",
"# 	c #5AD2AC",
"$ 	c #5CD5AF",
"% 	c #80D397",
"& 	c #6DC68E",
"* 	c #5AD3AD",
"= 	c #5DD5B0",
"- 	c #60D9B3",
"; 	c #63DBB6",
"> 	c #89DEA2",
", 	c #A18171",
"' 	c #96D265",
") 	c #9ED36C",
"! 	c #A3D971",
"~ 	c #A9DE77",
"{ 	c #AEE47C",
"] 	c #B4E881",
"^ 	c #B7DBA3",
"/ 	c #B73992",
"( 	c #CD446F",
"_ 	c #C18C6C",
": 	c #BDDA5B",
"< 	c #C4E161",
"[ 	c #CAE767",
"} 	c #D1ED6E",
"| 	c #BEF192",
"1 	c #A2E697",
"2 	c #AAB2BE",
"3 	c #B83A94",
"4 	c #D02F83",
"5 	c #D44B76",
"6 	c #DB5C77",
"7 	c #D19B7D",
"8 	c #CBE868",
"9 	c #D2EF6F",
"0 	c #BFF393",
"a 	c #ABFB98",
"b 	c #A2E798",
"c 	c #92C197",
"d 	c #A2ABB5",
"e 	c #B93C94",
"f 	c #D13084",
"g 	c #D43287",
"h 	c #DA517D",
"i 	c #E2637E",
"j 	c #E96A85",
"k 	c #E2AB8D",
"l 	c #C2F494",
"m 	c #ABFC99",
"n 	c #AAFB97",
"o 	c #9EE294",
"p 	c #8FBE94",
"q 	c #8DBC92",
"r 	c #9AA2AD",
"s 	c #BB439C",
"t 	c #D43387",
"u 	c #D7368A",
"v 	c #E15783",
"w 	c #EA6B86",
"x 	c #F0718C",
"y 	c #D4AEC5",
"z 	c #B1F3CD",
"A 	c #A9FA97",
"B 	c #A4F592",
"C 	c #99DD8F",
"D 	c #8CBB92",
"E 	c #8AB98F",
"F 	c #989BAC",
"G 	c #C64FA8",
"H 	c #DA398E",
"I 	c #E75E89",
"J 	c #F2728D",
"K 	c #D3B2C7",
"L 	c #9AE4FD",
"M 	c #96E0F9",
"N 	c #A7E9C3",
"O 	c #9EEF8B",
"P 	c #94D98A",
"Q 	c #979BAA",
"R 	c #D258B2",
"S 	c #EF6490",
"T 	c #D4B4CA",
"U 	c #95DFF8",
"V 	c #90DAF3",
"W 	c #8BD5EE",
"X 	c #99DCB4",
"Y 	c #90D485",
"Z 	c #9799AB",
"` 	c #C0BADA",
" .	c #7BE5FC",
"..	c #7ADDF8",
"+.	c #76D9F4",
"@.	c #72D5F0",
"#.	c #6ED1EC",
"$.	c #69CCE8",
"%.	c #87BDBD",
"&.	c #70DDF7",
"*.	c #4CD9F8",
"=.	c #4AD7F5",
"-.	c #47D4F3",
";.	c #45D2F1",
">.	c #5FC9E3",
",.	c #68D5EF",
"'.	c #44D1F0",
").	c #5EC8E3",
"!.	c #5FCCE6",
"~.	c #5DC8E2",
"                                ",
"              . +               ",
"            @ # $ %             ",
"          & * = - ; >           ",
"        , ' ) ! ~ { ] ^         ",
"      / ( _ : < [ } | 1 2       ",
"    3 4 5 6 7 8 9 0 a b c d     ",
"  e f g h i j k l m n o p q r   ",
"  s t u v w x y z A B C D E F   ",
"    G H I J K L M N O P E Q     ",
"      R S T L U V W X Y Z       ",
"        `  ...+.@.#.$.%.        ",
"          &.*.=.-.;.>.          ",
"            ,.-.'.).            ",
"              !.~.              ",
"                                "};
