/* XPM */
static char * schrumpf_24x24_xpm[] = {
"24 24 243 2",
"  	c None",
". 	c #7AAA7A",
"+ 	c #80AB7E",
"@ 	c #78B07E",
"# 	c #5ACDA6",
"$ 	c #5FD0A5",
"% 	c #87BB85",
"& 	c #75BA7E",
"* 	c #5BCFA6",
"= 	c #5AD2AC",
"- 	c #5BD4AE",
"; 	c #64D5AA",
"> 	c #8DCD8D",
", 	c #75BB7F",
"' 	c #59D0AA",
") 	c #5AD2AD",
"! 	c #5CD5AF",
"~ 	c #5ED6B0",
"{ 	c #5FD8B2",
"] 	c #66DAB0",
"^ 	c #97D795",
"/ 	c #78BC7D",
"( 	c #5AD0A9",
"_ 	c #5AD3AD",
": 	c #5ED7B1",
"< 	c #60D9B3",
"[ 	c #62DBB5",
"} 	c #64DCB7",
"| 	c #6CDEB4",
"1 	c #A1E19C",
"2 	c #96827C",
"3 	c #7CC583",
"4 	c #78D18B",
"5 	c #7CD38D",
"6 	c #7ED68F",
"7 	c #82D992",
"8 	c #84DB95",
"9 	c #87DE98",
"0 	c #8AE19B",
"a 	c #8CE49E",
"b 	c #96E79D",
"c 	c #B7CFB1",
"d 	c #A94199",
"e 	c #C53C79",
"f 	c #B8805F",
"g 	c #B4D151",
"h 	c #B8D556",
"i 	c #BDD95A",
"j 	c #C1DD5E",
"k 	c #C5E263",
"l 	c #CAE667",
"m 	c #CEEB6B",
"n 	c #D3EF71",
"o 	c #C2F18E",
"p 	c #A0CE9E",
"q 	c #B8AFD0",
"r 	c #AA4199",
"s 	c #CC2E83",
"t 	c #CF397A",
"u 	c #D1526D",
"v 	c #C48F70",
"w 	c #BDDA5B",
"x 	c #C2DD5F",
"y 	c #C6E364",
"z 	c #CAE768",
"A 	c #CEEB6C",
"B 	c #D3F070",
"C 	c #BFF292",
"D 	c #A8F995",
"E 	c #9BD499",
"F 	c #97C09F",
"G 	c #B5ACCD",
"H 	c #AA4298",
"I 	c #CD2D82",
"J 	c #D02F83",
"K 	c #D23C7D",
"L 	c #D65772",
"M 	c #DB5B76",
"N 	c #CF987A",
"O 	c #C7E364",
"P 	c #CBE868",
"Q 	c #CFEC6D",
"R 	c #D3F071",
"S 	c #C0F392",
"T 	c #A8F996",
"U 	c #ACFD99",
"V 	c #92C297",
"W 	c #94BD9B",
"X 	c #AEA5C6",
"Y 	c #AA449A",
"Z 	c #CB3085",
"` 	c #D02F84",
" .	c #D23186",
"..	c #D53F80",
"+.	c #DC5C77",
"@.	c #E0617C",
"#.	c #E46480",
"$.	c #DAA486",
"%.	c #D0ED6D",
"&.	c #D3F171",
"*.	c #C0F394",
"=.	c #A9FA97",
"-.	c #ABFB98",
";.	c #99D296",
">.	c #91C096",
",.	c #8FBE94",
"'.	c #91B89A",
").	c #A79FBE",
"!.	c #A8459C",
"~.	c #CB3086",
"{.	c #D13084",
"].	c #D33286",
"^.	c #D43488",
"/.	c #D94383",
"(.	c #E1617C",
"_.	c #E56580",
":.	c #E96A85",
"<.	c #EE6E89",
"[.	c #E4B091",
"}.	c #C1F395",
"|.	c #AAFA97",
"1.	c #AAFB97",
"2.	c #A6F794",
"3.	c #96D094",
"4.	c #8EBD92",
"5.	c #8CBB91",
"6.	c #8DB495",
"7.	c #A297B9",
"8.	c #AD4AA1",
"9.	c #CC348A",
"0.	c #D53488",
"a.	c #D7368A",
"b.	c #DC4687",
"c.	c #E66681",
"d.	c #EA6A85",
"e.	c #EE6F8A",
"f.	c #F3748F",
"g.	c #D0B3C7",
"h.	c #B0F1CA",
"i.	c #A6F793",
"j.	c #A3F490",
"k.	c #94CD92",
"l.	c #8DBC92",
"m.	c #8AB98F",
"n.	c #8DB195",
"o.	c #9E94B6",
"p.	c #B753A8",
"q.	c #D2388E",
"r.	c #D9388C",
"s.	c #DF498A",
"t.	c #EB6C87",
"u.	c #EF6F8A",
"v.	c #D3B1C7",
"w.	c #99E3FC",
"x.	c #AEEFC9",
"y.	c #A5F692",
"z.	c #A2F38F",
"A.	c #9EEF8C",
"B.	c #91CB8F",
"C.	c #8BBA90",
"D.	c #8CB095",
"E.	c #9E93B5",
"F.	c #BF5CB3",
"G.	c #D73B91",
"H.	c #DB3A8F",
"I.	c #E24D8D",
"J.	c #F0708B",
"K.	c #F47590",
"L.	c #D5B0C5",
"M.	c #96E0F9",
"N.	c #93DDF5",
"O.	c #A5E7C1",
"P.	c #9EEF8B",
"Q.	c #9AEB88",
"R.	c #8FC88D",
"S.	c #8BB194",
"T.	c #9D92B4",
"U.	c #C964BB",
"V.	c #DB4198",
"W.	c #E54F90",
"X.	c #F47892",
"Y.	c #D4B3C8",
"Z.	c #9AE3FB",
"`.	c #95DFF8",
" +	c #92DCF5",
".+	c #8FD9F2",
"++	c #8BD5EE",
"@+	c #9CDEB7",
"#+	c #97E785",
"$+	c #8DC58A",
"%+	c #8CB094",
"&+	c #9C91B5",
"*+	c #D26EC4",
"=+	c #E362A2",
"-+	c #D3B7C9",
";+	c #9AE4FD",
">+	c #98E3FB",
",+	c #91DBF4",
"'+	c #8ED8F1",
")+	c #8AD5ED",
"!+	c #87D1EA",
"~+	c #85CEE7",
"{+	c #96D8AB",
"]+	c #8FBA93",
"^+	c #9B92B3",
"/+	c #B7BDE4",
"(+	c #73DEF9",
"_+	c #63DFFC",
":+	c #62DCF9",
"<+	c #60DAF7",
"[+	c #5ED8F5",
"}+	c #5CD6F3",
"|+	c #5AD4F1",
"1+	c #58D2EF",
"2+	c #55D0ED",
"3+	c #5CCDE4",
"4+	c #89B3C2",
"5+	c #89E2F9",
"6+	c #54DBFA",
"7+	c #4DDAF9",
"8+	c #4BD8F7",
"9+	c #4AD7F5",
"0+	c #48D5F4",
"a+	c #47D4F3",
"b+	c #45D2F1",
"c+	c #49CFED",
"d+	c #6EC4DB",
"e+	c #80DBF2",
"f+	c #4FD8F6",
"g+	c #49D6F5",
"h+	c #46D3F2",
"i+	c #6CC3DA",
"j+	c #78D3EB",
"k+	c #4ED4F2",
"l+	c #44D1F0",
"m+	c #49CEED",
"n+	c #6CC3D9",
"o+	c #71CDE4",
"p+	c #49D0EE",
"q+	c #49CEEC",
"r+	c #6CC2D8",
"s+	c #6EC5DB",
"t+	c #6BC2D8",
"                                                ",
"                      . +                       ",
"                    @ # $ %                     ",
"                  & * = - ; >                   ",
"                , ' ) ! ~ { ] ^                 ",
"              / ( _ ! : < [ } | 1               ",
"            2 3 4 5 6 7 8 9 0 a b c             ",
"          d e f g h i j k l m n o p q           ",
"        r s t u v w x y z A B C D E F G         ",
"      H I J K L M N O P Q R S T U E V W X       ",
"    Y Z `  ...+.@.#.$.%.&.*.=.U -.;.>.,.'.).    ",
"  !.~.{.].^./.(._.:.<.[.}.|.U 1.2.3.,.4.5.6.7.  ",
"  8.9.].0.a.b.c.d.e.f.g.h.U =.i.j.k.l.5.m.n.o.  ",
"    p.q.a.r.s.t.u.f.v.w.w.x.y.z.A.B.C.m.D.E.    ",
"      F.G.H.I.J.K.L.w.w.M.N.O.P.Q.R.m.S.T.      ",
"        U.V.W.X.Y.w.Z.`. +.+++@+#+$+%+&+        ",
"          *+=+-+;+>+`.,+'+)+!+~+{+]+^+          ",
"            /+(+_+:+<+[+}+|+1+2+3+4+            ",
"              5+6+7+8+9+0+a+b+c+d+              ",
"                e+f+g+0+h+b+c+i+                ",
"                  j+k+h+l+m+n+                  ",
"                    o+p+q+r+                    ",
"                      s+t+                      ",
"                                                "};
