/* XPM */
static char * schrumpf_32x32_xpm[] = {
"32 32 341 2",
"  	c None",
". 	c #5DCA9F",
"+ 	c #64CB9B",
"@ 	c #5ECBA0",
"# 	c #58D0AB",
"$ 	c #59D2AC",
"% 	c #69CF9E",
"& 	c #5AD2AC",
"* 	c #5BD3AE",
"= 	c #5CD5AF",
"- 	c #6DD4A2",
"; 	c #5BD4AE",
"> 	c #5ED7B1",
", 	c #5FD8B2",
"' 	c #70D8A7",
") 	c #5FCB9F",
"! 	c #58D1AB",
"~ 	c #5AD3AD",
"{ 	c #5DD5AF",
"] 	c #60D8B3",
"^ 	c #61DAB4",
"/ 	c #63DBB5",
"( 	c #74DCAC",
"_ 	c #5FCCA0",
": 	c #59D1AB",
"< 	c #5CD4AF",
"[ 	c #5DD5B0",
"} 	c #5FD7B1",
"| 	c #60D9B3",
"1 	c #62DAB4",
"2 	c #63DBB6",
"3 	c #64DDB7",
"4 	c #66DEB9",
"5 	c #78E0AF",
"6 	c #61CC9F",
"7 	c #5AD1AA",
"8 	c #5CD3AC",
"9 	c #5ED4AD",
"0 	c #5FD6AF",
"a 	c #60D7B0",
"b 	c #62D9B2",
"c 	c #63DAB3",
"d 	c #64DCB5",
"e 	c #66DDB6",
"f 	c #68DFB8",
"g 	c #69E0B9",
"h 	c #6AE1BB",
"i 	c #7FE4B1",
"j 	c #C52F86",
"k 	c #B47D5F",
"l 	c #AFCC4D",
"m 	c #B3CF50",
"n 	c #B6D353",
"o 	c #B9D656",
"p 	c #BCD95A",
"q 	c #C0DC5D",
"r 	c #C3DF60",
"s 	c #C6E263",
"t 	c #C9E666",
"u 	c #CDE96A",
"v 	c #D0EC6D",
"w 	c #D3F070",
"x 	c #BFF090",
"y 	c #9CBCA5",
"z 	c #C53187",
"A 	c #CE2D81",
"B 	c #CC4D68",
"C 	c #BD8669",
"D 	c #B7D354",
"E 	c #BAD657",
"F 	c #BDD95A",
"G 	c #C0DD5D",
"H 	c #C4E061",
"I 	c #C6E364",
"J 	c #CAE767",
"K 	c #D0ED6D",
"L 	c #D3F071",
"M 	c #BBF192",
"N 	c #A6F793",
"O 	c #94C698",
"P 	c #9FBBAA",
"Q 	c #C43187",
"R 	c #CE2D82",
"S 	c #D02F83",
"T 	c #D0516C",
"U 	c #D45470",
"V 	c #C58F71",
"W 	c #BEDA5B",
"X 	c #C1DD5E",
"Y 	c #C7E464",
"Z 	c #CAE768",
"` 	c #CEEA6B",
" .	c #D1ED6E",
"..	c #D4F071",
"+.	c #BDF293",
"@.	c #AAFA97",
"#.	c #96C89A",
"$.	c #94C399",
"%.	c #9CB9A7",
"&.	c #CE2E82",
"*.	c #D13085",
"=.	c #D45570",
"-.	c #D75873",
";.	c #DB5B76",
">.	c #CE977A",
",.	c #C5E162",
"'.	c #C8E465",
").	c #CBE768",
"!.	c #CEEB6B",
"~.	c #D1EE6E",
"{.	c #D5F172",
"].	c #C0F392",
"^.	c #A7F894",
"/.	c #AAFB97",
"(.	c #ADFD9A",
"_.	c #96C799",
":.	c #93C298",
"<.	c #92C197",
"[.	c #98B6A3",
"}.	c #C63187",
"|.	c #CF2E82",
"1.	c #D23185",
"2.	c #D33287",
"3.	c #D85873",
"4.	c #DB5C77",
"5.	c #DE5F7A",
"6.	c #E2627D",
"7.	c #D69F83",
"8.	c #CCE869",
"9.	c #CFEB6C",
"0.	c #D2EE6F",
"a.	c #D5F272",
"b.	c #C1F392",
"c.	c #A7F895",
"d.	c #ABFB98",
"e.	c #ADFE9A",
"f.	c #94C697",
"g.	c #90BF96",
"h.	c #8FBE94",
"i.	c #96B3A1",
"j.	c #C73087",
"k.	c #D02F84",
"l.	c #D43287",
"m.	c #D53488",
"n.	c #DC5C77",
"o.	c #DF5F7A",
"p.	c #E2637E",
"q.	c #E56681",
"r.	c #E96984",
"s.	c #DEA88D",
"t.	c #D3EF70",
"u.	c #D6F273",
"v.	c #C0F394",
"w.	c #A8F995",
"x.	c #ABFC98",
"y.	c #93C496",
"z.	c #90BF95",
"A.	c #8EBD93",
"B.	c #8DBC92",
"C.	c #93AF9F",
"D.	c #C63188",
"E.	c #D13084",
"F.	c #D23186",
"G.	c #D6368A",
"H.	c #E0607B",
"I.	c #E3647E",
"J.	c #E66781",
"K.	c #E96A85",
"L.	c #EC6D88",
"M.	c #F0708B",
"N.	c #E8AD92",
"O.	c #BEF593",
"P.	c #A9F996",
"Q.	c #ABFD99",
"R.	c #ACFD99",
"S.	c #A5F592",
"T.	c #91C295",
"U.	c #8CBC92",
"V.	c #8BBA91",
"W.	c #8AB98F",
"X.	c #8FAC9B",
"Y.	c #C33790",
"Z.	c #D43387",
"`.	c #D7368A",
" +	c #D8378C",
".+	c #E3647F",
"++	c #E76782",
"@+	c #EA6A85",
"#+	c #ED6D89",
"$+	c #F0718C",
"%+	c #F3748F",
"&+	c #CDB2CA",
"*+	c #ABF0C9",
"=+	c #ACFD9A",
"-+	c #A9FA97",
";+	c #A7F794",
">+	c #A4F592",
",+	c #A2F28F",
"'+	c #90C193",
")+	c #8EBD92",
"!+	c #8CBB92",
"~+	c #8BBA90",
"{+	c #89B88E",
"]+	c #91A4A1",
"^+	c #C83C93",
"/+	c #D63589",
"(+	c #D9378C",
"_+	c #DA398D",
":+	c #E76882",
"<+	c #EA6B86",
"[+	c #ED6E89",
"}+	c #F1718C",
"|+	c #F47590",
"1+	c #D2B4C9",
"2+	c #98E2FA",
"3+	c #9AE4FD",
"4+	c #B1F2CD",
"5+	c #A6F794",
"6+	c #A3F491",
"7+	c #A1F28E",
"8+	c #9EEF8C",
"9+	c #8EC092",
"0+	c #92A4A1",
"a+	c #CC4097",
"b+	c #D7368B",
"c+	c #D9388C",
"d+	c #DC3A8F",
"e+	c #EB6C87",
"f+	c #EE6F8A",
"g+	c #F1728D",
"h+	c #D5B3C7",
"i+	c #98E2FB",
"j+	c #9BE5FE",
"k+	c #99E3FC",
"l+	c #97E0F9",
"m+	c #ABEBC9",
"n+	c #A1F18E",
"o+	c #9CEC89",
"p+	c #8DBE90",
"q+	c #88B88E",
"r+	c #91A4A0",
"s+	c #D0459D",
"t+	c #DA398E",
"u+	c #DD3C90",
"v+	c #EF6F8A",
"w+	c #F2728D",
"x+	c #F57690",
"y+	c #D6B4C9",
"z+	c #98E3FB",
"A+	c #96E0F9",
"B+	c #93DDF6",
"C+	c #91DBF4",
"D+	c #A5E5C2",
"E+	c #9EEF8B",
"F+	c #9BEC89",
"G+	c #99EA86",
"H+	c #8BBD8F",
"I+	c #8AB98E",
"J+	c #90A69E",
"K+	c #D54AA2",
"L+	c #DD3D91",
"M+	c #DF3E92",
"N+	c #F2738E",
"O+	c #F57691",
"P+	c #D3B7CC",
"Q+	c #95DFF8",
"R+	c #93DDF5",
"S+	c #90DAF3",
"T+	c #8ED8F0",
"U+	c #8BD5EE",
"V+	c #9DDEBA",
"W+	c #98E985",
"X+	c #96E783",
"Y+	c #8ABB8E",
"Z+	c #88B78E",
"`+	c #8FA59E",
" @	c #D94DA5",
".@	c #E13F94",
"+@	c #F67691",
"@@	c #D1B8CE",
"#@	c #97E2FA",
"$@	c #88D2EB",
"%@	c #85D0E8",
"&@	c #96D8B3",
"*@	c #93E380",
"=@	c #89BA8C",
"-@	c #90A49E",
";@	c #DD51A9",
">@	c #D2BACE",
",@	c #97E1FA",
"'@	c #94DEF7",
")@	c #92DCF5",
"!@	c #8FDAF2",
"~@	c #8DD7F0",
"{@	c #8AD5ED",
"]@	c #83CDE6",
"^@	c #81CBE3",
"/@	c #93D3AA",
"(@	c #90A89C",
"_@	c #65E1FD",
":@	c #51DEFD",
"<@	c #51DDFB",
"[@	c #4FDBFA",
"}@	c #4EDAF9",
"|@	c #4DDAF8",
"1@	c #4CD8F7",
"2@	c #4BD7F6",
"3@	c #49D5F4",
"4@	c #48D4F3",
"5@	c #47D3F2",
"6@	c #46D2F1",
"7@	c #44D1F0",
"8@	c #55CBE7",
"9@	c #60DEFA",
"0@	c #4EDBFA",
"a@	c #4DDAF9",
"b@	c #4CD9F8",
"c@	c #4BD8F7",
"d@	c #4AD7F5",
"e@	c #48D5F4",
"f@	c #48D5F3",
"g@	c #46D3F2",
"h@	c #45D2F1",
"i@	c #52CCE9",
"j@	c #5CDAF7",
"k@	c #4AD7F6",
"l@	c #49D6F5",
"m@	c #47D4F3",
"n@	c #52CCE8",
"o@	c #59D7F4",
"p@	c #44D0F0",
"q@	c #51CCE8",
"r@	c #55D3F0",
"s@	c #46D3F1",
"t@	c #44D0EF",
"u@	c #52CBE7",
"v@	c #53D0ED",
"w@	c #43D0EF",
"x@	c #53CAE6",
"y@	c #4FCDEA",
"z@	c #52CAE7",
"                                                                ",
"                                                                ",
"                              . +                               ",
"                            @ # $ %                             ",
"                          @ # & * = -                           ",
"                        @ # & ; = > , '                         ",
"                      ) ! ~ ; { > ] ^ / (                       ",
"                    _ : ~ < [ } | 1 2 3 4 5                     ",
"                  6 7 8 9 0 a b c d e f g h i                   ",
"                j k l m n o p q r s t u v w x y                 ",
"              z A B C D E F G H I J u K L M N O P               ",
"            Q R S T U V W X H Y Z `  ...+.N @.#.$.%.            ",
"          z &.S *.=.-.;.>.,.'.).!.~.{.].^./.(._.:.<.[.          ",
"        }.|.S 1.2.3.4.5.6.7.8.9.0.a.b.c.d.e.d.f.<.g.h.i.        ",
"      j.|.k.1.l.m.n.o.p.q.r.s.t.u.v.w.x.e./.c.y.z.h.A.B.C.      ",
"    D.|.E.F.l.m.G.H.I.J.K.L.M.N.O.P.Q.R.@.^.S.T.h.A.U.V.W.X.    ",
"    Y.E.F.Z.m.`. +.+++@+#+$+%+&+*+=+R.-+;+>+,+'+)+!+~+W.{+]+    ",
"      ^+Z./+`.(+_+:+<+[+}+|+1+2+3+4+P.5+6+7+8+9+!+~+W.{+0+      ",
"        a+b+c+_+d+e+f+g+|+h+i+j+k+l+m+6+n+8+o+p+~+W.q+r+        ",
"          s+t+d+u+v+w+x+y+z+j+z+A+B+C+D+E+F+G+H+I+q+J+          ",
"            K+L+M+N+O+P+k+3+2+Q+R+S+T+U+V+W+X+Y+Z+`+            ",
"               @.@+@@@3+3+#@Q+R+S+T+U+$@%@&@*@=@-@              ",
"                ;@>@3+3+,@'@)@!@~@{@$@%@]@^@/@(@                ",
"                  _@:@<@[@}@|@1@2@3@4@5@6@7@8@                  ",
"                    9@0@a@b@c@d@e@f@g@h@7@i@                    ",
"                      j@b@k@l@e@m@g@h@7@n@                      ",
"                        o@l@e@m@g@7@p@q@                        ",
"                          r@m@s@7@t@u@                          ",
"                            v@7@w@x@                            ",
"                              y@z@                              ",
"                                                                ",
"                                                                "};
