/* XPM */
static char * schrumpf_22x22_xpm[] = {
"22 22 197 2",
"  	c None",
". 	c #79AF7C",
"+ 	c #80B17D",
"@ 	c #76B580",
"# 	c #58D0AB",
"$ 	c #5AD2AD",
"% 	c #88C186",
"& 	c #76BC7E",
"* 	c #5AD3AD",
"= 	c #5CD5AF",
"- 	c #5ED7B1",
"; 	c #90D18F",
"> 	c #76BD7E",
", 	c #59D0AB",
"' 	c #5BD3AE",
") 	c #5DD5AF",
"! 	c #5FD7B2",
"~ 	c #61DAB4",
"{ 	c #65DBB4",
"] 	c #98DA99",
"^ 	c #7BBE7A",
"/ 	c #59D1AC",
"( 	c #5FD8B2",
"_ 	c #64DCB6",
": 	c #65DEB8",
"< 	c #68E0BA",
"[ 	c #A6E59C",
"} 	c #A83E98",
"| 	c #B57D5D",
"1 	c #B1CD4E",
"2 	c #B6D253",
"3 	c #BAD657",
"4 	c #BFDB5C",
"5 	c #C4E061",
"6 	c #C8E565",
"7 	c #CDEA6A",
"8 	c #D2EE6F",
"9 	c #C0F08D",
"0 	c #B2ACC7",
"a 	c #AA4199",
"b 	c #CD2D82",
"c 	c #CE4E69",
"d 	c #C18B6C",
"e 	c #BBD759",
"f 	c #C0DC5D",
"g 	c #C5E162",
"h 	c #C9E566",
"i 	c #CEEA6B",
"j 	c #D2EF6F",
"k 	c #BEF192",
"l 	c #A8F995",
"m 	c #95C19C",
"n 	c #B7AECF",
"o 	c #AC4198",
"p 	c #CD2E82",
"q 	c #D03084",
"r 	c #D4546F",
"s 	c #D85974",
"t 	c #CD9678",
"u 	c #C5E262",
"v 	c #CAE567",
"w 	c #CEEB6B",
"x 	c #D3F071",
"y 	c #BEF292",
"z 	c #A9F996",
"A 	c #ACFD9A",
"B 	c #94C299",
"C 	c #92C098",
"D 	c #AFA6C6",
"E 	c #AD429A",
"F 	c #CF2E82",
"G 	c #D13084",
"H 	c #D33286",
"I 	c #D95A75",
"J 	c #DE5F79",
"K 	c #E2637E",
"L 	c #D9A184",
"M 	c #CFEC6D",
"N 	c #D4F071",
"O 	c #C1F493",
"P 	c #A9FA97",
"Q 	c #AAFA97",
"R 	c #92C197",
"S 	c #90BF95",
"T 	c #8FBD94",
"U 	c #A79FBF",
"V 	c #AA449B",
"W 	c #D13085",
"X 	c #D33287",
"Y 	c #D53589",
"Z 	c #DE5F7A",
"` 	c #E3647F",
" .	c #E76A83",
"..	c #ED6D88",
"+.	c #E5B090",
"@.	c #C1F395",
"#.	c #AAFB97",
"$.	c #ACFD99",
"%.	c #A5F692",
"&.	c #8EBD93",
"*.	c #8CBB92",
"=.	c #8BB990",
"-.	c #A197B9",
";.	c #AF4BA1",
">.	c #D23185",
",.	c #D43287",
"'.	c #D63589",
").	c #D8378B",
"!.	c #E46580",
"~.	c #E96984",
"{.	c #ED6E89",
"].	c #F2738E",
"^.	c #D1B1C7",
"/.	c #AFF2CB",
"(.	c #ABFC99",
"_.	c #A8F896",
":.	c #A5F592",
"<.	c #A1F28E",
"[.	c #8CBB91",
"}.	c #8AB68F",
"|.	c #9E93B6",
"1.	c #B953AA",
"2.	c #D8378C",
"3.	c #DA398E",
"4.	c #EA6A85",
"5.	c #EE6F8A",
"6.	c #F3738E",
"7.	c #D4B0C5",
"8.	c #99E3FC",
"9.	c #ACEEC9",
"0.	c #A4F592",
"a.	c #A0F18E",
"b.	c #9DED8A",
"c.	c #8AB98F",
"d.	c #89B88E",
"e.	c #9D93B5",
"f.	c #C25CB4",
"g.	c #D93C91",
"h.	c #DD3C90",
"i.	c #EF708B",
"j.	c #F37691",
"k.	c #D3B2C7",
"l.	c #9AE2FB",
"m.	c #94DFF7",
"n.	c #91DBF4",
"o.	c #A3E4BE",
"p.	c #9CEC8A",
"q.	c #99E986",
"r.	c #8AB391",
"s.	c #9D92B5",
"t.	c #CC67BE",
"u.	c #DE3F94",
"v.	c #F47590",
"w.	c #D4B4CA",
"x.	c #9AE4FD",
"y.	c #98E2FB",
"z.	c #94DEF7",
"A.	c #8DD7F0",
"B.	c #89D3EB",
"C.	c #99DBB4",
"D.	c #94E581",
"E.	c #89B391",
"F.	c #9C91B3",
"G.	c #D56EC9",
"H.	c #D9B2C7",
"I.	c #98E2FA",
"J.	c #90DAF3",
"K.	c #8CD6EF",
"L.	c #85CFE8",
"M.	c #81CCE4",
"N.	c #90D1AB",
"O.	c #9D92B1",
"P.	c #8AE5FB",
"Q.	c #52DDFC",
"R.	c #4EDBFA",
"S.	c #4CD9F8",
"T.	c #4AD7F6",
"U.	c #49D6F5",
"V.	c #48D5F3",
"W.	c #46D3F1",
"X.	c #45D1EF",
"Y.	c #6DC5DA",
"Z.	c #82DEF5",
"`.	c #4DD9F8",
" +	c #48D5F4",
".+	c #47D4F3",
"++	c #45D2F1",
"@+	c #46D0EF",
"#+	c #6BC5DB",
"$+	c #7AD5ED",
"%+	c #44D0EF",
"&+	c #6BC3DA",
"*+	c #72CEE5",
"=+	c #45D2F0",
"-+	c #6AC4DB",
";+	c #6CC6DE",
">+	c #6BC2D8",
"                                            ",
"                    . +                     ",
"                  @ # $ %                   ",
"                & # * = - ;                 ",
"              > , ' ) ! ~ { ]               ",
"            ^ / ' ) ( ~ _ : < [             ",
"          } | 1 2 3 4 5 6 7 8 9 0           ",
"        a b c d e f g h i j k l m n         ",
"      o p q r s t u v w x y z A B C D       ",
"    E F G H I J K L M N O P A Q R S T U     ",
"  V F W X Y Z `  ...+.@.#.$.P %.S &.*.=.-.  ",
"  ;.>.,.'.).!.~.{.].^./.(._.:.<.&.[.=.}.|.  ",
"    1.'.2.3.4.5.6.7.8.8.9.0.a.b.[.c.d.e.    ",
"      f.g.h.i.j.k.8.l.m.n.o.p.q.c.r.s.      ",
"        t.u.v.w.x.y.z.n.A.B.C.D.E.F.        ",
"          G.H.x.I.z.J.K.B.L.M.N.O.          ",
"            P.Q.R.S.T.U.V.W.X.Y.            ",
"              Z.`.T. +.+++@+#+              ",
"                $+ +.+++%+&+                ",
"                  *+=+%+-+                  ",
"                    ;+>+                    ",
"                                            "};
